<?xml version="1.0" encoding="UTF-8"?>
<!-- Generator: visioncortex VTracer 0.6.3 -->
<svg version="1.1" xmlns="http://www.w3.org/2000/svg" width="1280" height="748">
<path d="M0 0 C422.4 0 844.8 0 1280 0 C1280 246.84 1280 493.68 1280 748 C857.6 748 435.2 748 0 748 C0 501.16 0 254.32 0 0 Z " fill="#FBFCFE" transform="translate(0,0)"/>
<path d="M0 0 C1.19 -0 2.38 -0.01 3.61 -0.01 C6.86 -0.02 10.11 -0.02 13.36 -0.01 C16.79 -0 20.22 -0.01 23.65 -0.01 C29.43 -0.02 35.21 -0.01 40.99 -0 C47.6 0.01 54.21 0.01 60.83 -0.01 C66.55 -0.01 72.28 -0.02 78 -0.01 C81.4 -0.01 84.8 -0.01 88.2 -0.01 C111.09 -0.04 133.55 0.43 155.79 6.26 C156.72 6.47 157.64 6.68 158.59 6.9 C177.23 11.63 193.78 24.62 203.98 40.57 C216.14 61.12 218.83 83.28 212.98 106.48 C208.23 121.81 199.8 134.12 185.79 142.26 C188.12 144.77 190.63 146.56 193.48 148.45 C207.98 158.52 218.42 174.12 222.79 191.26 C226.01 210.81 225.11 231.57 215.79 249.26 C215.31 250.22 214.83 251.19 214.34 252.18 C204.56 270.52 186.46 282.6 167.02 289.05 C151.21 293.82 135.26 295.41 118.82 295.44 C117.32 295.44 115.82 295.45 114.32 295.46 C109.43 295.48 104.55 295.49 99.66 295.5 C97.97 295.5 96.28 295.51 94.59 295.51 C86.66 295.53 78.73 295.54 70.8 295.55 C61.66 295.56 52.53 295.59 43.39 295.63 C36.31 295.66 29.23 295.67 22.15 295.68 C17.93 295.68 13.71 295.69 9.49 295.71 C5.52 295.74 1.55 295.74 -2.41 295.73 C-3.87 295.73 -5.32 295.74 -6.77 295.75 C-8.76 295.77 -10.75 295.76 -12.74 295.75 C-13.85 295.75 -14.96 295.75 -16.1 295.75 C-20.11 295.11 -22.17 293.95 -25.21 291.26 C-27.78 285.46 -27.49 279.41 -27.46 273.18 C-27.46 272.08 -27.47 270.97 -27.47 269.83 C-27.48 266.12 -27.47 262.42 -27.47 258.71 C-27.47 256.06 -27.47 253.4 -27.48 250.74 C-27.49 244.27 -27.48 237.81 -27.48 231.34 C-27.47 226.08 -27.47 220.82 -27.47 215.56 C-27.48 214.82 -27.48 214.07 -27.48 213.3 C-27.48 211.77 -27.48 210.25 -27.48 208.73 C-27.48 194.47 -27.48 180.21 -27.47 165.95 C-27.46 153.72 -27.46 141.49 -27.47 129.26 C-27.48 115.05 -27.48 100.84 -27.48 86.63 C-27.48 85.12 -27.48 83.6 -27.47 82.09 C-27.47 81.34 -27.47 80.59 -27.47 79.83 C-27.47 74.58 -27.48 69.33 -27.48 64.08 C-27.49 57.68 -27.48 51.28 -27.47 44.88 C-27.47 41.61 -27.47 38.35 -27.47 35.09 C-27.48 31.55 -27.47 28 -27.46 24.46 C-27.47 23.44 -27.47 22.41 -27.47 21.35 C-27.4 7.89 -27.4 7.89 -23.64 3.38 C-16.13 -0.08 -8.12 -0.03 0 0 Z " fill="#000102" transform="translate(699.207275390625,351.7412109375)"/>
<path d="M0 0 C0.82 -0 1.64 -0.01 2.48 -0.01 C5.21 -0.02 7.95 -0.02 10.68 -0.01 C12.64 -0.02 14.61 -0.02 16.57 -0.03 C21.9 -0.04 27.22 -0.04 32.55 -0.04 C36.99 -0.04 41.44 -0.04 45.89 -0.05 C56.37 -0.06 66.86 -0.06 77.35 -0.05 C88.17 -0.05 98.99 -0.06 109.81 -0.08 C119.1 -0.1 128.4 -0.11 137.69 -0.1 C143.24 -0.1 148.79 -0.1 154.33 -0.12 C159.55 -0.13 164.77 -0.13 169.98 -0.12 C171.9 -0.11 173.81 -0.12 175.73 -0.12 C178.34 -0.13 180.95 -0.13 183.57 -0.11 C184.33 -0.12 185.08 -0.13 185.87 -0.14 C190.33 -0.09 193.18 0.5 196.72 3.26 C200.38 8.46 200.16 13.58 200.12 19.7 C200.12 21.2 200.12 21.2 200.13 22.72 C200.13 24.83 200.12 26.93 200.11 29.04 C200.09 32.25 200.11 35.46 200.13 38.67 C200.13 40.72 200.12 42.77 200.12 44.82 C200.12 45.78 200.13 46.74 200.14 47.72 C200.08 52.93 199.8 56.84 196.72 61.26 C193.47 63.37 190.79 63.52 186.96 63.54 C185.79 63.55 184.61 63.56 183.4 63.57 C182.12 63.58 180.83 63.58 179.51 63.58 C178.14 63.59 176.77 63.6 175.4 63.61 C171.68 63.64 167.96 63.65 164.25 63.67 C160.36 63.68 156.48 63.71 152.59 63.73 C145.23 63.78 137.88 63.82 130.52 63.85 C122.15 63.89 113.77 63.94 105.4 63.99 C88.17 64.09 70.95 64.18 53.72 64.26 C52.8 67.03 52.59 68.68 52.59 71.53 C52.59 72.82 52.59 72.82 52.58 74.13 C52.58 75.05 52.58 75.97 52.59 76.92 C52.59 78.35 52.59 78.35 52.58 79.8 C52.58 81.8 52.58 83.8 52.59 85.8 C52.59 88.88 52.59 91.96 52.58 95.03 C52.58 96.98 52.58 98.92 52.59 100.86 C52.58 102.25 52.58 102.25 52.58 103.67 C52.58 104.52 52.59 105.37 52.59 106.25 C52.59 107 52.59 107.75 52.59 108.53 C52.53 110.29 52.53 110.29 53.72 111.26 C55.3 111.37 56.89 111.4 58.48 111.41 C60.03 111.42 60.03 111.42 61.61 111.44 C62.75 111.44 63.89 111.45 65.06 111.45 C66.85 111.46 66.85 111.46 68.68 111.48 C71.96 111.5 75.24 111.51 78.53 111.53 C81.96 111.55 85.39 111.57 88.82 111.6 C97.56 111.66 106.3 111.71 115.03 111.76 C124.45 111.82 133.87 111.87 143.29 111.94 C146.71 111.96 150.13 111.98 153.55 112 C157.36 112.02 161.18 112.04 164.99 112.07 C166.12 112.08 167.26 112.08 168.43 112.08 C169.99 112.1 169.99 112.1 171.58 112.11 C172.48 112.11 173.38 112.12 174.31 112.12 C176.62 112.25 178.54 112.49 180.72 113.26 C187.34 121.97 184.86 136.71 184.64 147.18 C184.61 148.92 184.59 150.65 184.58 152.38 C184.56 154.92 184.52 157.45 184.46 159.98 C184.46 160.75 184.46 161.53 184.46 162.32 C184.34 166.12 184.06 167.9 181.42 170.72 C177.41 173.01 174.19 173.39 169.61 173.38 C168.57 173.38 167.54 173.38 166.48 173.39 C165.35 173.38 164.23 173.38 163.07 173.37 C161.28 173.37 161.28 173.37 159.46 173.37 C156.2 173.37 152.94 173.37 149.68 173.36 C146.27 173.36 142.86 173.36 139.45 173.35 C133 173.35 126.55 173.34 120.09 173.33 C112.03 173.32 103.96 173.31 95.89 173.31 C81.5 173.3 67.11 173.28 52.72 173.26 C52.39 192.07 52.06 210.88 51.72 230.26 C52.38 230.26 53.04 230.26 53.72 230.26 C53.72 230.92 53.72 231.58 53.72 232.26 C54.84 232.26 54.84 232.26 55.99 232.25 C74.18 232.19 92.37 232.14 110.57 232.11 C119.37 232.09 128.17 232.07 136.96 232.03 C144.63 232 152.3 231.99 159.97 231.98 C164.03 231.97 168.09 231.97 172.15 231.94 C175.97 231.92 179.8 231.92 183.62 231.92 C185.02 231.92 186.42 231.91 187.83 231.9 C189.74 231.89 191.66 231.89 193.58 231.9 C194.65 231.9 195.72 231.89 196.82 231.89 C200.18 232.32 202.02 233.25 204.72 235.26 C209.76 242.82 207.94 254.61 207.96 263.47 C207.97 265.82 208 268.17 208.03 270.52 C208.14 285.29 208.14 285.29 204.72 292.26 C201.06 295.06 196.63 294.54 192.23 294.53 C190.93 294.53 190.93 294.53 189.61 294.54 C186.71 294.55 183.8 294.55 180.9 294.55 C178.82 294.56 176.74 294.56 174.66 294.57 C169.01 294.59 163.36 294.59 157.7 294.6 C152.99 294.6 148.27 294.6 143.55 294.61 C132.43 294.63 121.3 294.63 110.17 294.63 C98.69 294.63 87.2 294.65 75.72 294.68 C65.87 294.71 56.01 294.72 46.16 294.72 C40.27 294.72 34.38 294.72 28.49 294.74 C22.96 294.76 17.42 294.76 11.88 294.75 C9.85 294.75 7.82 294.75 5.78 294.76 C3.01 294.78 0.24 294.77 -2.54 294.76 C-3.34 294.77 -4.15 294.78 -4.98 294.79 C-10.16 294.72 -13.2 293.76 -17.28 290.26 C-18.25 287.37 -18.41 285.54 -18.41 282.53 C-18.42 281.55 -18.42 280.58 -18.43 279.57 C-18.43 278.49 -18.43 277.41 -18.43 276.3 C-18.43 275.16 -18.44 274.02 -18.44 272.84 C-18.45 269.67 -18.45 266.49 -18.46 263.31 C-18.46 259.89 -18.47 256.47 -18.48 253.04 C-18.5 244.77 -18.51 236.51 -18.52 228.24 C-18.52 224.34 -18.53 220.45 -18.53 216.56 C-18.55 203.62 -18.56 190.69 -18.57 177.75 C-18.57 174.39 -18.57 171.04 -18.58 167.68 C-18.58 166.85 -18.58 166.01 -18.58 165.15 C-18.59 151.63 -18.61 138.1 -18.64 124.58 C-18.68 110.7 -18.69 96.82 -18.7 82.94 C-18.7 75.14 -18.71 67.35 -18.73 59.55 C-18.76 52.92 -18.76 46.28 -18.75 39.64 C-18.75 36.26 -18.75 32.87 -18.77 29.48 C-18.79 25.81 -18.78 22.14 -18.77 18.47 C-18.78 17.4 -18.79 16.33 -18.8 15.22 C-18.76 10.9 -18.7 8.04 -16.63 4.19 C-11.58 0.05 -6.29 -0.03 0 0 Z " fill="#000102" transform="translate(998.2806549072266,352.7393035888672)"/>
<path d="M0 0 C1.73 -0 1.73 -0 3.5 -0.01 C5.94 -0.01 8.38 -0.01 10.82 0.01 C14.55 0.02 18.28 0.01 22.01 -0.01 C24.38 -0.01 26.75 -0.01 29.12 0 C30.24 -0.01 31.35 -0.01 32.5 -0.02 C33.54 -0.01 34.59 0 35.66 0.01 C37.03 0.01 37.03 0.01 38.42 0.02 C42.56 0.63 45.09 2.2 47.62 5.53 C49.34 9.12 49.42 12.24 49.38 16.13 C49.39 16.9 49.39 17.68 49.4 18.47 C49.41 21.05 49.4 23.63 49.4 26.22 C49.4 28.07 49.41 29.92 49.42 31.78 C49.43 35.77 49.44 39.76 49.44 43.75 C49.44 50.06 49.45 56.38 49.48 62.7 C49.52 74.98 49.54 87.26 49.55 99.54 C49.58 115.15 49.61 130.75 49.66 146.36 C49.68 152.63 49.69 158.9 49.69 165.17 C49.69 169.09 49.71 173 49.72 176.92 C49.72 178.72 49.72 180.53 49.72 182.33 C49.57 205.63 49.57 205.63 60.7 225.29 C64.45 228.73 68.44 231.16 73 233.4 C73.8 233.8 74.61 234.2 75.45 234.62 C88.73 240.31 105.72 239.6 119.25 235.15 C130.76 230.29 138.45 221.97 143.18 210.52 C144.92 203.86 145.14 197.04 145.14 190.18 C145.15 189.02 145.15 189.02 145.15 187.83 C145.16 185.26 145.17 182.69 145.17 180.12 C145.18 178.27 145.18 176.42 145.19 174.56 C145.2 170.58 145.22 166.61 145.23 162.63 C145.24 156.34 145.27 150.05 145.29 143.76 C145.36 125.87 145.42 107.99 145.47 90.11 C145.5 80.22 145.54 70.33 145.58 60.44 C145.61 54.19 145.62 47.94 145.64 41.69 C145.64 37.8 145.66 33.91 145.68 30.02 C145.69 28.22 145.69 26.42 145.69 24.62 C145.69 22.16 145.71 19.7 145.72 17.23 C145.72 16.52 145.72 15.81 145.72 15.08 C145.76 10.83 146.27 7.3 148 3.4 C153.94 -0.44 160.2 -0.04 167.1 0 C168.25 -0 169.41 -0.01 170.6 -0.01 C173.03 -0.01 175.46 -0.01 177.89 0.01 C181.62 0.02 185.34 0.01 189.06 -0.01 C191.43 -0.01 193.79 -0.01 196.16 0 C197.27 -0.01 198.38 -0.01 199.53 -0.02 C200.57 -0.01 201.6 0 202.67 0.01 C203.58 0.01 204.49 0.02 205.43 0.02 C208.71 0.5 210.41 1.3 213 3.4 C215.72 8.59 216.43 12.91 216.37 18.77 C216.37 19.59 216.38 20.4 216.38 21.24 C216.39 23.96 216.38 26.69 216.37 29.41 C216.37 31.36 216.37 33.32 216.38 35.28 C216.39 40.59 216.38 45.89 216.37 51.2 C216.35 56.77 216.36 62.34 216.36 67.91 C216.36 77.26 216.35 86.62 216.33 95.98 C216.31 106.77 216.31 117.56 216.31 128.35 C216.32 138.75 216.31 149.16 216.3 159.56 C216.3 163.97 216.3 168.39 216.3 172.8 C216.3 178.02 216.29 183.23 216.28 188.44 C216.27 190.35 216.27 192.25 216.27 194.15 C216.31 223.83 210.58 248.17 189.62 270.09 C163.94 294.94 126.83 301.99 92.37 301.61 C57.86 300.76 24.55 289.12 -0 264.4 C-19.63 243.78 -21.15 217.64 -21.17 190.68 C-21.17 188.71 -21.17 186.74 -21.18 184.76 C-21.19 179.44 -21.2 174.12 -21.2 168.79 C-21.21 165.46 -21.21 162.13 -21.22 158.8 C-21.23 148.38 -21.24 137.96 -21.24 127.53 C-21.25 115.51 -21.26 103.49 -21.29 91.47 C-21.32 82.17 -21.33 72.86 -21.33 63.55 C-21.33 58 -21.33 52.44 -21.35 46.89 C-21.37 41.67 -21.37 36.46 -21.36 31.24 C-21.36 29.33 -21.37 27.42 -21.37 25.5 C-21.39 22.89 -21.38 20.28 -21.37 17.67 C-21.38 16.54 -21.38 16.54 -21.4 15.38 C-21.35 10.65 -20.52 7.41 -18 3.4 C-12.65 -0.67 -6.43 -0.04 0 0 Z " fill="#000102" transform="translate(394.00390625,352.6015625)"/>
<path d="M0 0 C15.92 14.81 27.95 35.32 28.95 57.53 C28.75 61.46 28.64 63.59 26.03 66.66 C21.03 69.61 16.17 69.11 10.47 69.06 C9.27 69.06 8.07 69.06 6.83 69.06 C4.29 69.06 1.75 69.05 -0.79 69.03 C-4.67 69 -8.56 69.01 -12.44 69.02 C-14.91 69.02 -17.38 69.01 -19.84 69 C-21.01 69 -22.17 69 -23.36 69 C-24.45 68.99 -25.53 68.98 -26.65 68.97 C-27.6 68.96 -28.55 68.96 -29.53 68.95 C-32.72 68.48 -34.59 67.46 -37.19 65.56 C-38.96 62.71 -38.96 62.71 -40.56 59.38 C-45.3 50.08 -45.3 50.08 -53.19 43.56 C-53.19 42.9 -53.19 42.24 -53.19 41.56 C-56.95 40 -60.74 38.7 -64.62 37.5 C-65.72 37.16 -66.81 36.82 -67.93 36.46 C-84.68 31.82 -102.93 34.02 -118.18 42.28 C-120.96 44.06 -123.05 46.05 -125.19 48.56 C-126.01 49.43 -126.84 50.3 -127.69 51.19 C-133.24 57.95 -136.29 66.6 -136.33 75.3 C-136.34 76.22 -136.35 77.14 -136.36 78.1 C-136.36 79.1 -136.36 80.1 -136.36 81.13 C-136.37 82.19 -136.38 83.26 -136.38 84.35 C-136.4 87.87 -136.42 91.39 -136.43 94.91 C-136.43 96.12 -136.43 97.32 -136.44 98.56 C-136.46 104.94 -136.47 111.32 -136.48 117.7 C-136.49 124.28 -136.53 130.85 -136.57 137.42 C-136.59 142.49 -136.6 147.56 -136.61 152.63 C-136.61 155.05 -136.62 157.47 -136.64 159.89 C-137.11 182.52 -137.11 182.52 -125.75 201.3 C-110.71 214.58 -94.4 215.53 -75.19 214.56 C-70.94 214.01 -67.18 213.11 -63.19 211.56 C-62.3 211.22 -61.41 210.88 -60.5 210.53 C-52.62 207.06 -47.41 201.93 -44 194 C-41.95 188.4 -40.64 182.59 -39.31 176.79 C-38.1 173.32 -37.36 172.29 -34.19 170.56 C-31.24 169.58 -29.31 169.43 -26.24 169.42 C-25.24 169.41 -24.24 169.4 -23.2 169.4 C-21.57 169.4 -21.57 169.4 -19.91 169.39 C-18.8 169.39 -17.68 169.39 -16.53 169.38 C-14.17 169.38 -11.81 169.38 -9.45 169.38 C-5.83 169.38 -2.22 169.36 1.39 169.34 C3.68 169.33 5.98 169.33 8.27 169.33 C9.35 169.32 10.43 169.32 11.55 169.31 C13.06 169.31 13.06 169.31 14.61 169.32 C15.5 169.32 16.38 169.32 17.3 169.32 C20.15 169.6 22.25 170.29 24.81 171.56 C31.02 179.98 29.03 190.78 27.62 200.53 C23.79 221.49 10.46 239.88 -6.32 252.6 C-38.63 274.67 -75.2 283.16 -113.99 276.61 C-144.49 270.83 -175.58 255 -193.84 229.23 C-201.57 217.05 -207.27 201.4 -207.33 186.86 C-207.34 185.75 -207.35 184.64 -207.36 183.49 C-207.36 182.28 -207.36 181.08 -207.36 179.83 C-207.37 178.55 -207.38 177.27 -207.38 175.95 C-207.41 171.71 -207.42 167.47 -207.43 163.23 C-207.43 161.76 -207.43 160.29 -207.44 158.82 C-207.46 151.92 -207.47 145.02 -207.48 138.12 C-207.49 130.19 -207.52 122.26 -207.56 114.33 C-207.59 108.18 -207.6 102.03 -207.6 95.87 C-207.61 92.21 -207.62 88.55 -207.64 84.89 C-207.83 56 -207.83 56 -203.19 42.56 C-202.89 41.57 -202.59 40.57 -202.28 39.54 C-197.72 24.61 -187.26 10.22 -175.19 0.56 C-174.61 0.08 -174.03 -0.39 -173.43 -0.89 C-125.89 -38.45 -46.35 -40.75 0 0 Z " fill="#000102" transform="translate(292.1875,375.4375)"/>
<path d="M0 0 C10.35 -0.07 20.71 -0.12 31.06 -0.16 C35.87 -0.17 40.68 -0.19 45.49 -0.23 C50.14 -0.26 54.79 -0.28 59.43 -0.28 C61.2 -0.29 62.97 -0.3 64.73 -0.32 C90.58 -0.55 90.58 -0.55 98.6 7.32 C104.4 14.28 105.71 21.15 105 30 C103.5 37.58 98.57 43.25 92.56 47.88 C86.02 50.75 79.6 51.31 72.56 51.5 C61.91 51.46 61.91 51.46 52.31 55.26 C48.98 59.69 49.84 65.99 49.83 71.28 C49.83 72.17 49.83 73.06 49.82 73.98 C49.82 75.86 49.81 77.74 49.81 79.62 C49.81 82.49 49.79 85.36 49.78 88.23 C49.77 90.06 49.77 91.89 49.77 93.72 C49.76 94.57 49.76 95.43 49.75 96.31 C49.75 102.41 49.75 102.41 52 108 C55.18 110.35 58.41 110.33 62.28 110.49 C63.51 110.56 64.75 110.62 66.03 110.69 C68.6 110.81 71.17 110.93 73.74 111.04 C84.32 111.61 94.83 112.72 103 120 C108.98 127.31 110.04 134.85 109.52 143.96 C108.81 150.97 106.07 155.84 101.25 160.88 C91.73 167.1 82.9 168.17 71.73 168.11 C70.95 168.11 70.18 168.11 69.39 168.11 C66.87 168.11 64.36 168.11 61.84 168.1 C60.08 168.1 58.32 168.09 56.56 168.09 C51.96 168.09 47.36 168.08 42.76 168.07 C38.05 168.06 33.35 168.05 28.64 168.05 C19.43 168.04 10.21 168.02 1 168 C-0.44 165.13 -0.12 162.67 -0.12 159.46 C-0.12 158.78 -0.12 158.1 -0.12 157.4 C-0.12 155.11 -0.12 152.82 -0.11 150.53 C-0.11 148.9 -0.11 147.26 -0.11 145.63 C-0.11 141.18 -0.11 136.73 -0.1 132.28 C-0.1 127.63 -0.09 122.98 -0.09 118.34 C-0.09 109.53 -0.08 100.73 -0.07 91.92 C-0.06 81.9 -0.06 71.88 -0.05 61.86 C-0.04 41.24 -0.02 20.62 0 0 Z " fill="#FCFDFF" transform="translate(743,416)"/>
<path d="M0 0 C0.99 0.66 1.98 1.32 3 2 C7.78 1.77 11.68 -0.06 15.95 -2.06 C22.7 -5.15 30.12 -4.99 37.06 -2.5 C42.77 0.05 47.31 3.93 52 8 C53.1 8.9 54.21 9.79 55.31 10.69 C58.95 13.81 62.25 17.24 65.62 20.65 C73.87 28.63 83.05 36.17 95.06 36.69 C98.37 36.43 100.06 35.97 103.06 34.44 C105.58 31.26 106.45 29.03 107 25 C106.44 22.09 105.62 20.61 104 18 C101.67 16.67 101.67 16.67 99 17 C96.3 18.3 96.3 18.3 94 20 C93.34 20.33 92.68 20.66 92 21 C91.25 18.81 91.25 18.81 91 16 C93.37 12.08 95.56 10.11 100 9 C105.86 8.53 109.78 9 115 12 C121.65 18.04 124.55 25.31 125.25 34.19 C124.7 42.61 122.13 50.03 116 56 C105.66 63.61 95.41 64.25 82.84 62.47 C75.45 61.26 68.62 59.59 62 56 C60.7 55.33 60.7 55.33 59.37 54.66 C53.77 51.73 48.68 48.48 43.68 44.61 C36.26 40.15 28.39 39.42 19.93 38.83 C14.66 38.38 10.79 37.24 6 35 C3.6 35.21 2.12 35.94 -0.04 36.99 C-4.8 38.61 -9.71 38.74 -14.7 39.12 C-23.85 39.94 -30.88 42.45 -38.31 47.81 C-51.74 57.08 -64.61 62.18 -81 63 C-82.25 63.1 -82.25 63.1 -83.52 63.2 C-93.32 63.66 -101.64 60.16 -109.12 53.93 C-113.92 48.99 -116.13 42.64 -116.19 35.81 C-116.08 28.28 -114.87 21.95 -110 16 C-105.1 11.31 -101.2 9.22 -94.44 8.75 C-91 9 -88.95 9.25 -86 11 C-83.62 13.94 -83.62 13.94 -82 17 C-82.5 18.48 -82.5 18.48 -83 20 C-83.53 19.77 -84.06 19.54 -84.61 19.31 C-85.67 18.88 -85.67 18.88 -86.75 18.44 C-87.45 18.15 -88.14 17.86 -88.86 17.56 C-91.36 16.91 -92.62 17.03 -95 18 C-97.34 21.4 -98 23.48 -98 27.62 C-96.81 31.64 -95.49 32.79 -92 35 C-87.06 37.47 -80.34 36.28 -75.12 35.19 C-65.63 31.03 -57.69 21.75 -50.25 14.75 C-35.14 0.59 -20.69 -9.43 0 0 Z " fill="#000102" transform="translate(641,103)"/>
<path d="M0 0 C0.77 -0.01 1.55 -0.01 2.35 -0.02 C3.99 -0.03 5.64 -0.03 7.29 -0.04 C9.77 -0.05 12.26 -0.08 14.75 -0.11 C34.01 -0.24 34.01 -0.24 40.67 5.01 C44.87 11.51 45.6 17.56 44.38 25.2 C43.3 27.72 42.22 29.13 40.38 31.2 C40.38 33.21 42.24 35.05 43.32 36.64 C47.43 42.7 47.76 45.96 46.38 53.2 C44.93 57.42 42.7 60.28 38.88 62.58 C34.86 64.44 31.75 65.33 27.34 65.32 C26.17 65.32 26.17 65.32 24.98 65.32 C24.15 65.31 23.31 65.31 22.46 65.3 C21.6 65.3 20.74 65.3 19.85 65.3 C17.11 65.29 14.37 65.28 11.63 65.27 C9.77 65.26 7.91 65.26 6.05 65.25 C1.49 65.24 -3.07 65.22 -7.62 65.2 C-8.98 62.48 -8.75 60.34 -8.75 57.3 C-8.75 56.06 -8.76 54.82 -8.76 53.55 C-8.76 52.19 -8.76 50.84 -8.75 49.48 C-8.75 48.1 -8.76 46.71 -8.76 45.33 C-8.76 42.42 -8.76 39.52 -8.75 36.62 C-8.75 32.89 -8.75 29.16 -8.76 25.43 C-8.76 22.57 -8.76 19.71 -8.75 16.86 C-8.75 15.48 -8.76 14.11 -8.76 12.73 C-8.76 10.81 -8.76 8.89 -8.75 6.98 C-8.75 5.88 -8.75 4.79 -8.75 3.66 C-8.48 -1.48 -4.12 0.02 0 0 Z " fill="#000102" transform="translate(199.62109375,216.796875)"/>
<path d="M0 0 C5.25 -0.1 10.49 -0.17 15.74 -0.22 C17.52 -0.24 19.3 -0.27 21.09 -0.3 C40.61 -0.67 40.61 -0.67 47 4 C51.29 8.4 53.29 12.29 53.31 18.44 C53.24 22.83 52.78 25.47 50 29 C49.32 30.33 48.65 31.66 48 33 C48.99 33.33 49.98 33.66 51 34 C54.83 39.03 55.64 43.06 55.39 49.35 C54.63 54.52 52.38 57.66 48.62 61.31 C42.85 65.02 37.53 65.28 30.88 65.2 C30.03 65.19 29.17 65.19 28.29 65.19 C25.57 65.18 22.85 65.15 20.12 65.12 C18.27 65.11 16.42 65.11 14.57 65.1 C10.05 65.08 5.52 65.04 1 65 C-0.37 62.25 -0.12 60.06 -0.11 56.99 C-0.11 55.73 -0.11 54.47 -0.11 53.17 C-0.11 51.79 -0.1 50.4 -0.1 49.02 C-0.1 47.61 -0.09 46.2 -0.09 44.79 C-0.09 41.08 -0.08 37.37 -0.07 33.66 C-0.06 29.87 -0.05 26.08 -0.05 22.3 C-0.04 14.86 -0.02 7.43 0 0 Z " fill="#000102" transform="translate(480,217)"/>
<path d="M0 0 C4.99 3.77 8.03 9.09 10 15 C10.25 19.47 10.27 23.93 10.3 28.4 C10.31 29.87 10.33 31.34 10.36 32.81 C10.69 49.33 10.69 49.33 6 56 C-0.04 62.19 -7.4 64.69 -15.95 65.16 C-24.42 64.88 -32.43 62.06 -38.83 56.38 C-43.02 51.56 -43.17 47.13 -43.2 41.04 C-43.21 40.26 -43.21 39.48 -43.22 38.68 C-43.23 37.03 -43.24 35.37 -43.24 33.72 C-43.25 31.21 -43.28 28.69 -43.31 26.18 C-43.32 24.57 -43.32 22.96 -43.33 21.36 C-43.34 20.61 -43.35 19.86 -43.37 19.09 C-43.34 12.07 -40.8 7.04 -36 2 C-33.09 0.45 -33.09 0.45 -29.94 -0.75 C-28.89 -1.16 -27.85 -1.56 -26.78 -1.98 C-17.14 -5.51 -9.39 -3.83 0 0 Z " fill="#000102" transform="translate(996,219)"/>
<path d="M0 0 C2.27 -0.01 4.53 -0.04 6.79 -0.07 C23.74 -0.2 23.74 -0.2 30.29 4.89 C30.72 5.46 31.16 6.03 31.61 6.62 C32.06 7.18 32.51 7.74 32.98 8.33 C37.06 14.88 37 21.72 36.17 29.24 C34.23 34.47 30.84 38.21 26.17 41.24 C25.51 41.24 24.85 41.24 24.17 41.24 C24.78 44.51 25.92 46.58 27.89 49.24 C28.43 49.98 28.97 50.73 29.52 51.49 C30.67 53.04 31.81 54.58 32.95 56.13 C33.49 56.87 34.03 57.61 34.58 58.37 C35.08 59.04 35.57 59.71 36.08 60.4 C37.17 62.24 37.17 62.24 37.17 65.24 C34.6 65.38 32.05 65.47 29.48 65.55 C28.76 65.59 28.04 65.64 27.3 65.68 C23.33 65.77 21.68 65.63 18.45 63.13 C16 60.02 13.64 56.89 11.42 53.62 C11.02 53.04 10.62 52.47 10.21 51.88 C7.23 47.53 6.03 44.49 6.04 39.24 C6.04 37.94 6.04 37.94 6.04 36.62 C6.17 34.24 6.17 34.24 7.17 31.24 C9.6 30.4 9.6 30.4 12.61 29.74 C17.24 28.86 17.24 28.86 20.17 25.24 C20.03 21.87 19.6 19.85 17.63 17.1 C14.23 14.53 11.02 14.57 6.92 14.49 C6.17 14.46 5.43 14.43 4.66 14.4 C2.83 14.33 1 14.28 -0.83 14.24 C-0.83 14.86 -0.83 15.49 -0.82 16.13 C-0.8 22.6 -0.79 29.08 -0.78 35.55 C-0.77 37.97 -0.76 40.38 -0.76 42.8 C-0.74 46.27 -0.74 49.74 -0.73 53.21 C-0.73 54.29 -0.72 55.38 -0.72 56.5 C-0.72 58.01 -0.72 58.01 -0.72 59.54 C-0.72 60.42 -0.71 61.31 -0.71 62.22 C-0.83 64.24 -0.83 64.24 -1.83 65.24 C-3.97 65.34 -6.12 65.37 -8.27 65.37 C-9.44 65.37 -10.62 65.37 -11.83 65.37 C-14.83 65.24 -14.83 65.24 -16.83 64.24 C-16.83 43.45 -16.83 22.66 -16.83 1.24 C-11.46 -0.55 -5.63 0.01 0 0 Z " fill="#000102" transform="translate(686.8310546875,216.759765625)"/>
<path d="M0 0 C0.71 -0 1.41 -0.01 2.14 -0.01 C3.64 -0.01 5.14 -0.01 6.64 0.01 C8.9 0.02 11.16 0.01 13.43 -0.01 C30.83 -0.04 30.83 -0.04 36.63 4.98 C41.27 9.79 43.46 15.27 44.18 21.84 C43.31 30.13 41.16 34.84 34.64 40.18 C32.8 41.4 32.8 41.4 30.8 41.4 C32.69 47.2 36.47 51.8 39.99 56.69 C40.48 57.38 40.97 58.07 41.47 58.78 C41.92 59.4 42.36 60.03 42.83 60.67 C43.8 62.4 43.8 62.4 43.8 65.4 C41.43 65.53 39.06 65.63 36.68 65.71 C36.01 65.75 35.35 65.79 34.66 65.84 C30.78 65.93 28.87 65.44 25.62 63.28 C19.83 57.74 13.9 50.38 13.23 42.15 C13.15 38.54 13.4 34.98 13.8 31.4 C14.58 31.22 15.35 31.03 16.14 30.85 C17.14 30.6 18.15 30.34 19.18 30.09 C20.68 29.72 20.68 29.72 22.2 29.35 C25.11 28.58 25.11 28.58 26.8 25.4 C26.61 20.73 26.61 20.73 24.5 16.7 C22.42 15.1 21.39 15.05 18.79 15.11 C18.04 15.12 17.28 15.12 16.5 15.13 C15.71 15.16 14.93 15.19 14.12 15.21 C13.32 15.22 12.52 15.24 11.7 15.25 C9.74 15.29 7.77 15.34 5.8 15.4 C5.81 16.01 5.81 16.62 5.81 17.25 C5.83 23.59 5.85 29.94 5.86 36.28 C5.86 38.65 5.87 41.02 5.88 43.39 C5.89 46.79 5.9 50.18 5.9 53.58 C5.91 54.65 5.91 55.72 5.92 56.81 C5.92 58.29 5.92 58.29 5.92 59.79 C5.92 60.66 5.92 61.52 5.92 62.42 C5.8 64.4 5.8 64.4 4.8 65.4 C2.66 65.52 0.51 65.57 -1.63 65.59 C-3.39 65.61 -3.39 65.61 -5.19 65.63 C-8.2 65.4 -8.2 65.4 -10.2 63.4 C-10.46 60.9 -10.46 60.9 -10.47 57.71 C-10.48 56.52 -10.49 55.33 -10.5 54.1 C-10.5 52.81 -10.5 51.52 -10.5 50.18 C-10.5 48.85 -10.5 47.51 -10.51 46.18 C-10.52 43.38 -10.52 40.58 -10.51 37.78 C-10.51 34.19 -10.52 30.6 -10.55 27.01 C-10.56 24.25 -10.56 21.49 -10.56 18.74 C-10.56 16.77 -10.57 14.8 -10.59 12.83 C-10.58 11.64 -10.57 10.45 -10.57 9.22 C-10.57 8.16 -10.57 7.11 -10.57 6.02 C-10.2 3.4 -10.2 3.4 -8.87 1.56 C-6.08 -0.37 -3.33 0.01 0 0 Z " fill="#000102" transform="translate(393.1953125,216.6015625)"/>
<path d="M0 0 C2.12 -0.05 4.25 -0.09 6.38 -0.12 C7.56 -0.15 8.74 -0.17 9.96 -0.2 C13 0 13 0 15 2 C15.32 4.25 15.32 4.25 15.41 7.01 C15.45 7.99 15.49 8.98 15.53 10 C15.56 11.03 15.59 12.06 15.62 13.12 C15.66 14.17 15.7 15.21 15.74 16.28 C15.84 18.85 15.92 21.43 16 24 C22.93 24.33 29.86 24.66 37 25 C36.99 23.36 36.98 21.73 36.96 20.04 C36.96 17.9 36.95 15.76 36.94 13.62 C36.93 12.54 36.92 11.46 36.91 10.35 C36.91 9.32 36.91 8.29 36.9 7.23 C36.9 6.27 36.89 5.32 36.89 4.34 C37 2 37 2 38 0 C40.12 -0.05 42.25 -0.09 44.38 -0.12 C45.56 -0.15 46.74 -0.17 47.96 -0.2 C51 0 51 0 53 2 C53.24 4.63 53.24 4.63 53.23 8.01 C53.23 9.27 53.23 10.53 53.23 11.83 C53.22 13.21 53.21 14.6 53.2 15.98 C53.19 17.39 53.19 18.8 53.19 20.21 C53.18 23.92 53.16 27.63 53.14 31.34 C53.12 35.13 53.11 38.92 53.1 42.7 C53.08 50.14 53.04 57.57 53 65 C50.71 65.03 48.42 65.05 46.12 65.06 C44.85 65.07 43.57 65.09 42.26 65.1 C39 65 39 65 37 64 C37 56.41 37 48.82 37 41 C30.07 41 23.14 41 16 41 C15.67 48.92 15.34 56.84 15 65 C4.26 65.2 4.26 65.2 1 65 C-1 63 -1 63 -1.25 60.5 C-1.25 59.45 -1.24 58.4 -1.24 57.31 C-1.25 56.12 -1.25 54.93 -1.25 53.7 C-1.25 52.41 -1.24 51.12 -1.23 49.79 C-1.23 48.45 -1.23 47.11 -1.23 45.78 C-1.23 42.98 -1.22 40.18 -1.21 37.38 C-1.19 33.79 -1.18 30.2 -1.19 26.61 C-1.19 23.85 -1.18 21.1 -1.17 18.34 C-1.17 16.37 -1.17 14.4 -1.16 12.44 C-1.16 11.24 -1.15 10.05 -1.15 8.82 C-1.14 7.76 -1.14 6.71 -1.13 5.63 C-1 3 -1 3 0 0 Z " fill="#000102" transform="translate(857,217)"/>
<path d="M0 0 C1.37 -0.01 2.75 -0.03 4.12 -0.06 C12.46 -0.24 20.31 -0.28 27.58 4.3 C33.08 9.94 35.86 15.67 35.96 23.61 C35.82 30.51 34.73 35.05 29.89 40.04 C21.6 47.04 11.93 46.54 1.58 46.3 C1.25 52.57 0.92 58.84 0.58 65.3 C-4.04 65.3 -8.66 65.3 -13.42 65.3 C-14.78 62.57 -14.54 60.43 -14.53 57.38 C-14.53 56.14 -14.53 54.89 -14.53 53.62 C-14.53 52.26 -14.52 50.9 -14.52 49.54 C-14.51 48.15 -14.51 46.76 -14.51 45.38 C-14.51 41.72 -14.5 38.07 -14.49 34.42 C-14.48 30.69 -14.47 26.96 -14.47 23.24 C-14.46 15.92 -14.44 8.61 -14.42 1.3 C-10.18 -0.82 -4.66 0.03 0 0 Z " fill="#000102" transform="translate(1063.4189453125,216.704833984375)"/>
<path d="M0 0 C1.34 -0.01 1.34 -0.01 2.71 -0.02 C3.68 -0.02 4.66 -0.02 5.66 -0.02 C6.65 -0.03 7.64 -0.03 8.67 -0.03 C10.77 -0.04 12.87 -0.04 14.98 -0.04 C18.21 -0.04 21.44 -0.06 24.66 -0.08 C26.7 -0.08 28.74 -0.08 30.78 -0.09 C32.24 -0.1 32.24 -0.1 33.73 -0.11 C34.62 -0.1 35.52 -0.1 36.45 -0.1 C37.24 -0.1 38.03 -0.1 38.85 -0.1 C40.79 0.15 40.79 0.15 42.79 2.15 C43.02 4.71 43.02 4.71 42.97 7.71 C42.97 8.7 42.96 9.69 42.96 10.71 C42.79 13.15 42.79 13.15 41.79 14.15 C39.57 14.3 37.35 14.4 35.13 14.46 C34.46 14.48 33.8 14.5 33.11 14.52 C30.98 14.59 28.85 14.65 26.72 14.71 C25.28 14.75 23.84 14.79 22.4 14.84 C18.86 14.95 15.33 15.05 11.79 15.15 C11.79 17.79 11.79 20.43 11.79 23.15 C12.9 23.17 12.9 23.17 14.03 23.21 C17.39 23.3 20.74 23.41 24.1 23.52 C25.27 23.55 26.43 23.58 27.64 23.61 C28.76 23.65 29.87 23.69 31.03 23.73 C32.06 23.76 33.09 23.79 34.15 23.83 C36.79 24.15 36.79 24.15 39.79 26.15 C39.79 30.11 39.79 34.07 39.79 38.15 C30.22 38.48 20.65 38.81 10.79 39.15 C11.12 42.78 11.45 46.41 11.79 50.15 C22.02 50.48 32.25 50.81 42.79 51.15 C42.79 51.81 42.79 52.47 42.79 53.15 C43.45 53.15 44.11 53.15 44.79 53.15 C44.79 57.11 44.79 61.07 44.79 65.15 C28.62 65.15 12.45 65.15 -4.21 65.15 C-5.57 62.43 -5.34 60.29 -5.34 57.24 C-5.35 56 -5.35 54.77 -5.35 53.49 C-5.35 52.14 -5.35 50.78 -5.35 49.42 C-5.35 48.04 -5.35 46.65 -5.35 45.27 C-5.35 42.37 -5.35 39.46 -5.34 36.56 C-5.34 32.83 -5.34 29.1 -5.35 25.38 C-5.35 22.52 -5.35 19.66 -5.35 16.8 C-5.35 15.42 -5.35 14.05 -5.35 12.67 C-5.35 10.75 -5.35 8.84 -5.34 6.92 C-5.34 5.83 -5.34 4.73 -5.34 3.61 C-5.13 -0.48 -3.67 0.02 0 0 Z " fill="#000102" transform="translate(583.212646484375,216.854736328125)"/>
<path d="M0 0 C4.82 4.5 6.66 8.77 6.99 15.31 C7 16.15 7 16.15 7 17 C4.92 17.11 2.83 17.19 0.75 17.25 C-0.99 17.32 -0.99 17.32 -2.77 17.39 C-6.66 16.92 -7.57 15.98 -10 13 C-12.09 10.52 -12.09 10.52 -15.12 9.64 C-15.89 9.65 -16.65 9.67 -17.44 9.69 C-18.2 9.69 -18.96 9.7 -19.75 9.7 C-22.25 10.03 -23.88 10.63 -26 12 C-26.81 14.56 -26.81 14.56 -27 17 C-26.32 17.27 -25.64 17.54 -24.94 17.81 C-22.87 18.65 -20.83 19.52 -18.79 20.42 C-14.45 22.29 -9.96 23.67 -5.43 25.02 C-0.26 26.65 3.25 28.94 6.75 33.06 C9.19 38.8 9.87 45.3 8 51.31 C5.62 56.6 1.42 59.82 -3.69 62.31 C-15.92 64.85 -26.15 64.58 -36.79 57.63 C-40.05 55.23 -41.92 53.53 -44 50 C-44.43 46.94 -44.45 44.06 -44 41 C-42.12 39.12 -39.2 39.65 -36.69 39.56 C-33.11 39.58 -33.11 39.58 -30 40 C-27.5 42.81 -27.5 42.81 -26 46 C-22.06 49.48 -18.32 49.29 -13.3 49.2 C-10.84 49.08 -10.84 49.08 -8 48 C-7.62 44.03 -7.62 44.03 -9.01 40.45 C-12.02 38.26 -15.45 37.6 -19 36.69 C-27.2 34.44 -36.32 31.73 -42 25 C-44.09 18.74 -44.13 11.4 -41.31 5.44 C-30.85 -5.59 -13.13 -8.98 0 0 Z " fill="#000102" transform="translate(806,220)"/>
<path d="M0 0 C1.17 0.04 2.34 0.07 3.55 0.11 C4.44 0.16 5.33 0.2 6.25 0.25 C10.62 9.83 14.25 19.62 17.77 29.55 C20.64 37.62 23.65 45.64 26.77 53.61 C28.27 57.47 29.65 61.13 30.25 65.25 C27.98 65.33 25.71 65.39 23.44 65.44 C21.54 65.49 21.54 65.49 19.61 65.54 C16.25 65.25 16.25 65.25 14.41 63.93 C10.25 57.89 10.25 57.89 10.25 54.25 C2.33 54.58 -5.59 54.91 -13.75 55.25 C-14.08 56.9 -14.41 58.55 -14.75 60.25 C-15.74 62.73 -15.74 62.73 -16.75 65.25 C-22.03 65.25 -27.31 65.25 -32.75 65.25 C-31.06 59.32 -29.18 53.63 -26.83 47.93 C-25.82 45.44 -24.88 42.93 -23.96 40.4 C-23.62 39.44 -23.27 38.48 -22.91 37.49 C-21.86 34.56 -20.82 31.63 -19.79 28.7 C-18.85 26.07 -17.91 23.45 -16.97 20.82 C-16.49 19.47 -16.01 18.12 -15.53 16.76 C-14.83 14.78 -14.12 12.8 -13.41 10.82 C-12.99 9.65 -12.58 8.48 -12.15 7.28 C-9.3 1.1 -6.71 -0.27 0 0 Z " fill="#000102" transform="translate(314.75,216.75)"/>
<path d="M0 0 C3.94 3.84 4.3 7.11 4.57 12.54 C4.59 15.04 4.58 17.55 4.56 20.06 C4.59 21.33 4.61 22.6 4.63 23.9 C4.62 34.21 4.62 34.21 1.53 37.31 C0.69 37.87 -0.14 38.42 -1 39 C-1.33 39.33 -1.66 39.66 -2 40 C-7.71 40.7 -10.78 39.34 -15.4 36.29 C-17 35 -17 35 -18 33 C-18.3 28.76 -18.28 24.5 -18.31 20.25 C-18.34 19.07 -18.37 17.89 -18.4 16.67 C-18.48 5.79 -18.48 5.79 -14 1 C-9.94 -1.67 -4.48 -1.79 0 0 Z " fill="#FCFDFF" transform="translate(986,230)"/>
<path d="M0 0 C3.27 -0.12 6.54 -0.19 9.81 -0.25 C10.74 -0.28 11.67 -0.32 12.63 -0.35 C13.97 -0.37 13.97 -0.37 15.33 -0.39 C16.57 -0.42 16.57 -0.42 17.82 -0.45 C20 0 20 0 21.81 1.83 C23.47 4.86 22.87 6.73 22 10 C20.34 11.66 18.22 11.36 15.94 11.56 C13.49 11.78 13.49 11.78 11 12 C11 15.3 11 18.6 11 22 C12.33 22.43 12.33 22.43 13.69 22.88 C14.78 23.25 15.87 23.62 17 24 C17.91 24.29 18.81 24.58 19.75 24.88 C22 26 22 26 23.38 27.81 C24.17 30.59 23.86 32.27 23 35 C21 37 21 37 18.97 37.24 C18.15 37.24 17.34 37.23 16.5 37.23 C15.17 37.23 15.17 37.23 13.81 37.22 C12.42 37.21 12.42 37.21 11 37.19 C10.07 37.19 9.14 37.19 8.19 37.19 C1.28 37.14 1.28 37.14 -1 36 C-1.02 31.19 -1.04 26.39 -1.05 21.58 C-1.06 19.95 -1.07 18.31 -1.08 16.68 C-1.09 14.33 -1.09 11.98 -1.1 9.63 C-1.1 8.9 -1.11 8.17 -1.11 7.41 C-1.11 2.23 -1.11 2.23 0 0 Z " fill="#FCFDFF" transform="translate(207,231)"/>
<path d="M0 0 C1.4 -0.03 1.4 -0.03 2.83 -0.06 C3.72 -0.07 4.61 -0.07 5.53 -0.08 C6.76 -0.09 6.76 -0.09 8.02 -0.11 C8.69 0.01 9.37 0.13 10.06 0.25 C12.36 3.7 12.41 5.2 12.06 9.25 C9.66 11.65 8.73 11.59 5.44 11.88 C3.27 12.06 3.27 12.06 1.06 12.25 C0.73 15.88 0.4 19.51 0.06 23.25 C2.44 23.62 2.44 23.62 4.88 24 C8.11 24.5 9.6 24.76 11.86 27.17 C13.37 29.78 13.52 31.28 13.06 34.25 C11.45 36.39 10.58 37.17 7.9 37.61 C7.09 37.6 6.27 37.59 5.43 37.58 C4.1 37.57 4.1 37.57 2.74 37.56 C1.35 37.53 1.35 37.53 -0.06 37.5 C-0.99 37.49 -1.93 37.49 -2.89 37.48 C-9.78 37.4 -9.78 37.4 -10.94 36.25 C-11.04 33.67 -11.08 31.11 -11.07 28.53 C-11.07 27.76 -11.07 26.99 -11.07 26.19 C-11.07 24.55 -11.07 22.91 -11.07 21.28 C-11.06 18.76 -11.07 16.25 -11.07 13.73 C-11.07 12.14 -11.07 10.56 -11.07 8.97 C-11.07 8.21 -11.07 7.45 -11.08 6.67 C-11.04 -1.72 -7.34 0.04 0 0 Z " fill="#FCFDFF" transform="translate(505.9375,230.75)"/>
<path d="M0 0 C1.9 -0.08 3.79 -0.14 5.69 -0.19 C6.74 -0.22 7.8 -0.26 8.89 -0.29 C12.42 0.04 14.18 0.88 17 3 C19.14 6.21 19.27 6.85 18.94 10.5 C18.88 11.27 18.83 12.05 18.78 12.84 C18 15 18 15 15.83 16.77 C12.59 18.18 10.33 18.34 6.81 18.25 C5.77 18.23 4.72 18.22 3.64 18.2 C1 18 1 18 -1 17 C-1.03 14.54 -1.05 12.08 -1.06 9.62 C-1.07 8.93 -1.08 8.23 -1.09 7.51 C-1.11 2.23 -1.11 2.23 0 0 Z " fill="#FCFDFF" transform="translate(1065,231)"/>
<path d="M0 0 C4.47 3.48 8.52 7.34 12.59 11.27 C23.82 21.96 34.94 32.19 50.21 36.4 C50.21 37.06 50.21 37.72 50.21 38.4 C52.19 38.89 52.19 38.89 54.21 39.4 C42.63 40.15 32.59 35.17 24.01 27.66 C18.98 23.12 14.18 18.39 9.46 13.52 C2.39 6.37 -6.01 0.29 -16.35 0.15 C-20.24 0.26 -23.97 0.57 -27.79 1.4 C-27.46 0.74 -27.13 0.08 -26.79 -0.6 C-25.47 -0.6 -24.15 -0.6 -22.79 -0.6 C-22.79 -1.26 -22.79 -1.92 -22.79 -2.6 C-14.44 -5.22 -7.25 -5.26 0 0 Z " fill="#FBFCFE" transform="translate(681.78515625,108.6015625)"/>
<path d="M0 0 C0.89 0.5 1.77 0.99 2.69 1.5 C2.69 1.83 2.69 2.16 2.69 2.5 C1.69 2.42 0.7 2.34 -0.32 2.25 C-12.99 1.53 -22.47 5.01 -32.05 13.42 C-35.46 16.56 -38.69 19.86 -41.93 23.18 C-52.9 34.41 -62.39 40.74 -78.31 41.5 C-78.31 41.17 -78.31 40.84 -78.31 40.5 C-76.66 40.5 -75.01 40.5 -73.31 40.5 C-73.31 39.84 -73.31 39.18 -73.31 38.5 C-72.72 38.29 -72.12 38.08 -71.51 37.87 C-61.92 34.31 -53.53 29.44 -46.65 21.79 C-45.31 20.5 -45.31 20.5 -43.31 20.5 C-43.31 19.84 -43.31 19.18 -43.31 18.5 C-42.71 18.4 -42.11 18.3 -41.5 18.2 C-38.89 17.36 -38.07 16.43 -36.38 14.31 C-35.6 13.37 -35.6 13.37 -34.81 12.4 C-33.5 10.74 -32.22 9.06 -30.94 7.38 C-23.14 -1.17 -11.01 -4.79 0 0 Z " fill="#FBFCFE" transform="translate(634.3125,106.5)"/>
<path d="M0 0 C2 1 2 1 3.29 4.27 C3.74 5.64 4.19 7.01 4.62 8.38 C4.85 9.06 5.08 9.75 5.32 10.45 C6.29 13.41 7 15.87 7 19 C3.04 19 -0.92 19 -5 19 C-6.42 14.73 -4.65 11.8 -3.06 7.81 C-2.77 7.06 -2.48 6.31 -2.18 5.54 C-1.46 3.69 -0.73 1.84 0 0 Z " fill="#FCFDFF" transform="translate(313,238)"/>
</svg>
